<svg xmlns="http://www.w3.org/2000/svg" viewBox="0 0 442.95 148.55"><defs><style>.cls-1{fill:#002ccc}</style></defs><g id="Layer_2" data-name="Layer 2"><g id="Layer_1-2" data-name="Layer 1"><path d="M325.68 148.55A53.28 53.28 0 1 1 379 95.27a53.34 53.34 0 0 1-53.28 53.28m0-82.34a29.06 29.06 0 1 0 29.06 29.06 29.09 29.09 0 0 0-29.06-29.06" class="cls-1"/><path d="M379.79 121h-24.24a.93.93 0 0 1-.93-.92V5.29a.93.93 0 0 1 .93-.93h24.24a.93.93 0 0 1 .92.93V120a.92.92 0 0 1-.92.92M106 95.07c0-30.56 23.17-51.93 52.33-51.93 29 0 49.73 19.37 49.73 48.93 0 3.68-.31 7.36-.52 9.55a.92.92 0 0 1-.92.84h-72.89a.82.82 0 0 0-.81 1c2.35 12.85 12.76 21.22 26.41 21.22 11.58 0 19.43-6.53 22.65-13.65a.93.93 0 0 1 1.09-.52l22.25 6.12a.93.93 0 0 1 .64 1.19c-5.55 16.29-23.11 29.18-46.63 29.18-29.76 0-53.33-21.57-53.33-51.93m75.84-11.78a.71.71 0 0 0 .69-.84c-2.34-10.68-12.13-16.94-24-16.94-11.47 0-20.86 5.68-24.48 16.84a.72.72 0 0 0 .68.94Zm231.67-37.75h24.72a.92.92 0 0 1 .92.92v97.22a.92.92 0 0 1-.92.92h-24.72a.92.92 0 0 1-.92-.92V46.46a.92.92 0 0 1 .92-.92" class="cls-1"/><path d="M401.91 117.73c-12.93-1.68-21.23-11.27-21.23-25.13l-25.44 1.61a50.89 50.89 0 0 0 46.48 50.63.93.93 0 0 0 1-.92v-25.28a.93.93 0 0 0-.82-.91M425.77 0A17.31 17.31 0 0 1 443 17.18a17.18 17.18 0 0 1-34.36 0A17.31 17.31 0 0 1 425.77 0M244.44 94.5l-24.24-2.44a.85.85 0 0 0-.93.73v51.08a.85.85 0 0 0 .93.73h24.24a.84.84 0 0 0 .92-.73V95.23a.84.84 0 0 0-.92-.73" class="cls-1"/><path d="M266.56 70.26c-12.93 1.68-21.23 11.27-21.23 25.13l-26-1.69A51 51 0 0 1 266 43.14c.54 0 1.41.39 1.41.93v25.28a.92.92 0 0 1-.81.91M107.23 45.54H81.68a.92.92 0 0 0-.86.6l-26 68.59a.61.61 0 0 1-1.15 0l-26.13-68.6a.91.91 0 0 0-.86-.59H.93a.92.92 0 0 0-.86 1.27l34.39 84.67A21.78 21.78 0 0 0 54 144.71a21.78 21.78 0 0 0 19.5-13.26l34.61-84.64a.93.93 0 0 0-.86-1.27" class="cls-1"/></g></g></svg>